# xmcd
#
# Track frame offsets: 
#        150
#        18744
#        40404
#        63787
#        82140
#        100286
#        120221
#        142242
#        160120
#        181091
#        201313
#        222733
#        241704
#
# Disc length: 3445 seconds
#
# Revision: 0
# Processed by: cddbd v1.5.2PL0 Copyright (c) Steve Scherf et al.
# Submitted via: ExactAudioCopy v1.0b3
#
DISCID=b80d730d
DTITLE=刘紫玲 - DTS ES 正品 新天上人间
DYEAR=2011
DGENRE=DTS ES
TTITLE0=梦江南
TTITLE1=古老的故事
TTITLE2=春光美
TTITLE3=四季歌
TTITLE4=天女散花
TTITLE5=故乡情
TTITLE6=燕衔泥
TTITLE7=灞桥柳
TTITLE8=烟花三月
TTITLE9=花好月圆
TTITLE10=新天上人间
TTITLE11=茉莉花
TTITLE12=故乡的女孩
EXTD=
EXTT0=
EXTT1=
EXTT2=
EXTT3=
EXTT4=
EXTT5=
EXTT6=
EXTT7=
EXTT8=
EXTT9=
EXTT10=
EXTT11=
EXTT12=
PLAYORDER=
